<svg width="14" height="14" viewBox="0 0 14 14" fill="none" xmlns="http://www.w3.org/2000/svg">
<g clip-path="url(#clip0)">
<path d="M8.2932 1.5435C7.9699 1.06806 7.68463 0.630661 7.41839 0.231293C7.38035 0.17424 7.3233 0.117187 7.26625 0.0791524C7.03804 -0.0729879 6.73376 0.00308221 6.58162 0.231293C6.33439 0.630661 6.04913 1.04905 5.70681 1.5435C4.20443 3.74954 1.96036 7.07761 1.96036 8.97936C1.96036 10.3676 2.53088 11.6228 3.44372 12.5356C4.35657 13.4295 5.61172 14 7 14C8.38828 14 9.64344 13.4295 10.5563 12.5166C11.4691 11.6038 12.0396 10.3486 12.0396 8.96034C12.0396 7.05859 9.79558 3.74954 8.2932 1.5435ZM9.87165 11.832C9.12997 12.5737 8.12204 13.0111 7 13.0111C5.87797 13.0111 4.87004 12.5547 4.12836 11.832C3.38667 11.0903 2.94927 10.0824 2.94927 8.96034C2.94927 7.36287 5.09825 4.18694 6.52456 2.07599C6.69572 1.82877 6.84786 1.58154 7 1.37235C7.15214 1.58154 7.30428 1.82877 7.47544 2.07599C8.90176 4.20596 11.0507 7.36287 11.0507 8.96034C11.0507 10.0824 10.5943 11.0903 9.87165 11.832Z" fill="#222222"/>
<path d="M9.94771 8.61796C9.68147 8.59894 9.45326 8.80814 9.43424 9.07438C9.41522 9.49277 9.2821 9.89214 9.07291 10.2345C8.86372 10.5768 8.55944 10.8811 8.1981 11.0712C7.96989 11.2044 7.87481 11.5086 8.00793 11.7368C8.16007 12.0031 8.46435 12.0792 8.69256 11.946C9.20603 11.6608 9.62441 11.2424 9.90968 10.7669C10.214 10.2915 10.3851 9.72098 10.4041 9.13144C10.4231 8.86519 10.214 8.63698 9.94771 8.61796Z" fill="#222222"/>
</g>
<defs>
<clipPath id="clip0">
<rect width="14" height="14" fill="white"/>
</clipPath>
</defs>
</svg>
