<svg width="23" height="22" viewBox="0 0 23 22" fill="none" xmlns="http://www.w3.org/2000/svg">
<path d="M21.9 19.4L15.3 13.5C16.2 12.2 16.8 10.6 16.8 8.89996C16.8 4.49996 13.3 1 8.89999 1C4.49999 1 1 4.49996 1 8.89996C1 13.3 4.49999 16.8 8.89999 16.8C10.7 16.8 12.3 16.2 13.6 15.3L20.3 21.3C20.7 21.6 21.3 21.5 21.8 20.9C22.2 20.4 22.3 19.7 21.9 19.4ZM8.79999 14.5C5.69999 14.5 3.29999 12 3.29999 9C3.29999 6 5.79999 3.5 8.79999 3.5C11.9 3.5 14.3 6 14.3 9C14.3 12 11.9 14.5 8.79999 14.5Z" stroke="#222222" stroke-opacity="0.7" stroke-miterlimit="10" stroke-linecap="round" stroke-linejoin="round"/>
</svg>
